<svg width="174" height="200" viewBox="0 0 174 200" fill="none" xmlns="http://www.w3.org/2000/svg">
<path d="M87 0L174 50V150L87 200L0 150V50L87 0Z" fill="#151E1E"/>
<path opacity="0.3" fill-rule="evenodd" clip-rule="evenodd" d="M74.6481 100.823C76.4004 102.902 78.6104 104.583 81.1227 105.709L69.0216 129.792L67.6675 116.25L74.6481 100.823ZM94.9852 106.12C97.5457 105.151 99.8301 103.62 101.688 101.678L108.292 116.25L106.938 129.792L94.9852 106.12ZM87.98 67.5C90.2236 67.5 92.0425 69.3188 92.0425 71.5625V78.3333H83.9175V71.5625C83.9175 69.3188 85.7363 67.5 87.98 67.5Z" fill="#3699FF"/>
<path d="M87.9801 94.5833C90.9717 94.5833 93.3968 92.1582 93.3968 89.1667C93.3968 86.1751 90.9717 83.75 87.9801 83.75C84.9886 83.75 82.5635 86.1751 82.5635 89.1667C82.5635 92.1582 84.9886 94.5833 87.9801 94.5833ZM87.9801 102.708C80.5013 102.708 74.4385 96.6455 74.4385 89.1667C74.4385 81.6878 80.5013 75.625 87.9801 75.625C95.459 75.625 101.522 81.6878 101.522 89.1667C101.522 96.6455 95.459 102.708 87.9801 102.708Z" fill="#3699FF"/>
</svg>
