<svg width="174" height="200" viewBox="0 0 174 200" fill="none" xmlns="http://www.w3.org/2000/svg">
<path d="M87 0L174 50V150L87 200L0 150V50L87 0Z" fill="#151E1E"/>
<path opacity="0.3" d="M87.98 79.8555L76.519 93.6088C75.5614 94.7579 73.8536 94.9131 72.7045 93.9556C71.5555 92.998 71.4002 91.2902 72.3578 90.1411L85.8995 73.8911C86.9822 72.5918 88.9779 72.5918 90.0606 73.8911L103.602 90.1411C104.56 91.2902 104.405 92.998 103.256 93.9556C102.106 94.9131 100.399 94.7579 99.4411 93.6088L87.98 79.8555Z" fill="#3699FF"/>
<path fill-rule="evenodd" clip-rule="evenodd" d="M64.3652 91.875H111.594C113.09 91.875 114.303 93.0876 114.303 94.5833C114.303 94.8048 114.276 95.0254 114.222 95.2402L108.477 118.221C107.572 121.838 104.323 124.375 100.594 124.375H75.3653C71.637 124.375 68.3871 121.838 67.4829 118.221L61.7378 95.2402C61.375 93.7891 62.2572 92.3186 63.7084 91.9559C63.9232 91.9022 64.1438 91.875 64.3652 91.875ZM87.9798 100C86.484 100 85.2715 101.213 85.2715 102.708V113.542C85.2715 115.037 86.484 116.25 87.9798 116.25C89.4756 116.25 90.6881 115.037 90.6881 113.542V102.708C90.6881 101.213 89.4756 100 87.9798 100ZM74.3426 100.369C72.8978 100.756 72.0404 102.241 72.4275 103.686L75.2314 114.15C75.6185 115.595 77.1036 116.453 78.5484 116.065C79.9932 115.678 80.8506 114.193 80.4635 112.748L77.6596 102.284C77.2725 100.839 75.7874 99.982 74.3426 100.369ZM101.617 100.369C100.172 99.982 98.6871 100.839 98.3 102.284L95.4961 112.748C95.109 114.193 95.9664 115.678 97.4112 116.065C98.856 116.453 100.341 115.595 100.728 114.15L103.532 103.686C103.919 102.241 103.062 100.756 101.617 100.369Z" fill="#3699FF"/>
</svg>
