<svg width="27" height="27" viewBox="0 0 27 27" fill="none" xmlns="http://www.w3.org/2000/svg">
<g opacity="0.3" clip-path="url(#clip0_1_1186)">
<mask id="mask0_1_1186" style="mask-type:luminance" maskUnits="userSpaceOnUse" x="0" y="-1" width="29" height="27">
<path d="M28.2273 -0.825684H0.75V25.6175H28.2273V-0.825684Z" fill="white"/>
</mask>
<g mask="url(#mask0_1_1186)">
<path d="M28.2275 21.2105C28.2275 23.6443 26.177 25.6176 23.648 25.6176C21.1188 25.6176 19.0685 23.6443 19.0685 21.2105C19.0685 18.7764 21.1188 16.8033 23.648 16.8033C26.177 16.8033 28.2275 18.7764 28.2275 21.2105Z" fill="white"/>
<path d="M22.5031 10.7431C22.5031 12.873 20.7091 14.5995 18.4959 14.5995C16.2827 14.5995 14.4887 12.873 14.4887 10.7431C14.4887 8.61341 16.2827 6.88672 18.4959 6.88672C20.7091 6.88672 22.5031 8.61341 22.5031 10.7431Z" fill="white"/>
<path d="M14.4887 19.0066C14.4887 22.6576 11.4131 25.6175 7.61918 25.6175C3.82555 25.6175 0.750014 22.6576 0.750014 19.0066C0.750014 15.3555 3.82555 12.3959 7.61918 12.3959C11.4131 12.3959 14.4887 15.3555 14.4887 19.0066Z" fill="white"/>
<path d="M12.1993 4.68348C12.1993 7.72606 9.63615 10.1926 6.47464 10.1926C3.31313 10.1926 0.750062 7.72606 0.750062 4.68348C0.750062 1.64091 3.31313 -0.825684 6.47464 -0.825684C9.63615 -0.825684 12.1993 1.64091 12.1993 4.68348Z" fill="white"/>
<path d="M28.2275 2.47966C28.2275 4.30521 26.6895 5.78501 24.7926 5.78501C22.8957 5.78501 21.358 4.30521 21.358 2.47966C21.358 0.65412 22.8957 -0.825684 24.7926 -0.825684C26.6895 -0.825684 28.2275 0.65412 28.2275 2.47966Z" fill="white"/>
<path d="M27.0823 13.4974C27.0823 14.106 26.5697 14.5992 25.9374 14.5992C25.3051 14.5992 24.7925 14.106 24.7925 13.4974C24.7925 12.8892 25.3051 12.3959 25.9374 12.3959C26.5697 12.3959 27.0823 12.8892 27.0823 13.4974Z" fill="white"/>
<path d="M18.4958 3.03065C18.4958 3.94356 17.727 4.68346 16.7784 4.68346C15.8301 4.68346 15.0612 3.94356 15.0612 3.03065C15.0612 2.11801 15.8301 1.37811 16.7784 1.37811C17.727 1.37811 18.4958 2.11801 18.4958 3.03065Z" fill="white"/>
</g>
</g>
<defs>
<clipPath id="clip0_1_1186">
<rect width="26" height="26" fill="white" transform="matrix(-1 0 0 1 26.75 0.429993)"/>
</clipPath>
</defs>
</svg>
